<svg width="18" height="20" viewBox="0 0 18 20" fill="none" xmlns="http://www.w3.org/2000/svg">
<path d="M16 11.586V8C16 4.783 13.815 2.073 10.855 1.258C10.562 0.52 9.846 0 9 0C8.154 0 7.438 0.52 7.145 1.258C4.185 2.074 2 4.783 2 8V11.586L0.293 13.293C0.105 13.48 0 13.734 0 14V16C0 16.553 0.447 17 1 17H17C17.553 17 18 16.553 18 16V14C18 13.734 17.895 13.48 17.707 13.293L16 11.586ZM16 15H2V14.414L3.707 12.707C3.895 12.52 4 12.266 4 12V8C4 5.243 6.243 3 9 3C11.757 3 14 5.243 14 8V12C14 12.266 14.105 12.52 14.293 12.707L16 14.414V15ZM9 20C10.311 20 11.407 19.166 11.818 18H6.182C6.593 19.166 7.689 20 9 20Z" fill="#222222"/>
</svg>
