<svg width="20" height="20" viewBox="0 0 20 20" fill="none" xmlns="http://www.w3.org/2000/svg">
<path d="M2.707 19C3.085 19.378 3.587 19.586 4.121 19.586C4.655 19.586 5.157 19.378 5.535 19L9.871 14.664C10.587 14.885 11.33 14.997 12.088 14.997C14.091 14.997 15.975 14.218 17.39 12.802C19.536 10.655 20.177 7.453 19.022 4.644L18.452 3.256L14.208 7.499L12.087 5.377L16.33 1.134L14.941 0.563C14.031 0.189 13.07 0 12.084 0C10.081 0 8.198 0.78 6.783 2.196C4.798 4.18 4.101 7.068 4.921 9.714L0.585 14.05C-0.195 14.829 -0.195 16.099 0.585 16.878L2.707 19ZM7.255 10.209L7.001 9.593C6.153 7.532 6.623 5.183 8.197 3.61C9.235 2.572 10.615 2 12.084 2C12.261 2 12.436 2.008 12.61 2.025L9.257 5.378L14.206 10.328L17.561 6.973C17.717 8.581 17.158 10.204 15.974 11.389C14.424 12.939 12.01 13.416 9.99 12.585L9.375 12.33L4.121 17.586H4.122L4.121 18.586V17.586L1.999 15.464L7.255 10.209Z" fill="#222222"/>
</svg>
