<svg width="20" height="20" viewBox="0 0 20 20" fill="none" xmlns="http://www.w3.org/2000/svg">
<path d="M7.17206 14.242L10.0001 11.414L12.8281 14.242L14.2421 12.828L11.4141 10L14.2421 7.172L12.8281 5.758L10.0001 8.586L7.17206 5.758L5.75806 7.172L8.58606 10L5.75806 12.828L7.17206 14.242Z" fill="#222222"/>
<path d="M10 20C15.514 20 20 15.514 20 10C20 4.486 15.514 0 10 0C4.486 0 0 4.486 0 10C0 15.514 4.486 20 10 20ZM10 2C14.411 2 18 5.589 18 10C18 14.411 14.411 18 10 18C5.589 18 2 14.411 2 10C2 5.589 5.589 2 10 2Z" fill="#222222"/>
</svg>
