<svg width="19" height="20" viewBox="0 0 19 20" fill="none" xmlns="http://www.w3.org/2000/svg">
<path d="M9.4231 14C11.6291 14 13.4231 12.206 13.4231 10C13.4231 7.794 11.6291 6 9.4231 6C7.2171 6 5.4231 7.794 5.4231 10C5.4231 12.206 7.2171 14 9.4231 14ZM9.4231 8C10.5071 8 11.4231 8.916 11.4231 10C11.4231 11.084 10.5071 12 9.4231 12C8.3391 12 7.4231 11.084 7.4231 10C7.4231 8.916 8.3391 8 9.4231 8Z" fill="#222222"/>
<path d="M0.268078 14.136L1.26808 15.866C1.79908 16.783 3.07708 17.127 3.99808 16.596L4.52708 16.29C5.10908 16.747 5.74808 17.122 6.42308 17.402V18C6.42308 19.103 7.32008 20 8.42308 20H10.4231C11.5261 20 12.4231 19.103 12.4231 18V17.402C13.0981 17.122 13.7371 16.747 14.3191 16.291L14.8481 16.597C15.7711 17.127 17.0461 16.785 17.5791 15.866L18.5781 14.137C19.1301 13.182 18.8021 11.956 17.8471 11.405L17.3421 11.113C17.3961 10.742 17.4231 10.371 17.4231 10C17.4231 9.629 17.3961 9.257 17.3421 8.889L17.8471 8.597C18.8021 8.045 19.1301 6.82 18.5781 5.865L17.5791 4.136C17.0481 3.216 15.7711 2.871 14.8481 3.404L14.3191 3.71C13.7371 3.253 13.0981 2.878 12.4231 2.598V2C12.4231 0.897 11.5261 0 10.4231 0H8.42308C7.32008 0 6.42308 0.897 6.42308 2V2.598C5.74808 2.878 5.10908 3.253 4.52708 3.709L3.99808 3.403C3.07408 2.872 1.79808 3.216 1.26708 4.135L0.268078 5.864C-0.283922 6.819 0.0440775 8.045 0.999077 8.596L1.50408 8.888C1.45008 9.257 1.42308 9.629 1.42308 10C1.42308 10.371 1.45008 10.742 1.50408 11.111L0.999077 11.403C0.0440775 11.955 -0.283922 13.181 0.268078 14.136ZM3.59408 11.378C3.48108 10.925 3.42308 10.461 3.42308 10C3.42308 9.538 3.48108 9.074 3.59308 8.622C3.70108 8.189 3.51008 7.737 3.12308 7.514L2.00008 6.864L2.99808 5.135L4.14308 5.797C4.52708 6.018 5.01008 5.962 5.33108 5.655C6.01408 5.008 6.83808 4.524 7.71508 4.256C8.13608 4.128 8.42308 3.739 8.42308 3.3V2H10.4231V3.3C10.4231 3.739 10.7101 4.128 11.1311 4.256C12.0081 4.525 12.8321 5.008 13.5151 5.655C13.8361 5.962 14.3211 6.017 14.7031 5.797L15.8471 5.136L16.8471 6.865L15.7231 7.514C15.3361 7.738 15.1451 8.19 15.2531 8.622C15.3651 9.074 15.4231 9.538 15.4231 10C15.4231 10.461 15.3651 10.925 15.2521 11.378C15.1451 11.811 15.3361 12.263 15.7231 12.486L16.8461 13.135L15.8481 14.864L14.7031 14.203C14.3201 13.982 13.8361 14.037 13.5151 14.345C12.8321 14.992 12.0081 15.476 11.1311 15.744C10.7101 15.872 10.4231 16.261 10.4231 16.7L10.4251 18H8.42308V16.7C8.42308 16.261 8.13608 15.872 7.71508 15.744C6.83808 15.475 6.01408 14.992 5.33108 14.345C5.14108 14.163 4.89308 14.07 4.64308 14.07C4.47108 14.07 4.29908 14.114 4.14308 14.204L2.99908 14.866L1.99908 13.137L3.12308 12.486C3.51008 12.263 3.70108 11.811 3.59408 11.378Z" fill="#222222"/>
</svg>
