<svg width="20" height="22" viewBox="0 0 20 22" fill="none" xmlns="http://www.w3.org/2000/svg">
<path d="M1 5L4 1H16L19 5M1 5V19C1 19.5304 1.21071 20.0391 1.58579 20.4142C1.96086 20.7893 2.46957 21 3 21H17C17.5304 21 18.0391 20.7893 18.4142 20.4142C18.7893 20.0391 19 19.5304 19 19V5M1 5H19M14 8.99988C14 10.0607 13.5786 11.0782 12.8284 11.8283C12.0783 12.5785 11.0608 12.9999 9.99998 12.9999C8.93912 12.9999 7.9217 12.5785 7.17156 11.8283C6.42141 11.0782 5.99998 10.0607 5.99998 8.99988" stroke="#222222" stroke-width="2" stroke-linecap="round" stroke-linejoin="round"/>
</svg>
