<svg width="20" height="14" viewBox="0 0 20 14" fill="none" xmlns="http://www.w3.org/2000/svg">
<path d="M8 5.99975H5.101C5.101 5.99675 5.101 5.99375 5.102 5.99075C5.167 5.67175 5.265 5.35675 5.393 5.05375C5.519 4.75675 5.674 4.47075 5.854 4.20375C6.032 3.93975 6.238 3.69075 6.464 3.46375C6.691 3.23775 6.94 3.03175 7.206 2.85275C7.472 2.67275 7.757 2.51875 8.054 2.39275C8.356 2.26475 8.671 2.16675 8.992 2.10175C9.65 1.96675 10.349 1.96675 11.01 2.10175C11.328 2.16675 11.644 2.26475 11.947 2.39275C12.243 2.51775 12.528 2.67375 12.797 2.85375C13.063 3.03275 13.311 3.23775 13.535 3.46275L14.951 2.05075C14.637 1.73475 14.287 1.44675 13.915 1.19575C13.542 0.94375 13.142 0.72575 12.727 0.54975C12.302 0.36975 11.859 0.23275 11.412 0.14175C10.489 -0.04725 9.513 -0.04725 8.593 0.14175C8.144 0.23375 7.701 0.37075 7.277 0.55075C6.858 0.72675 6.458 0.94375 6.086 1.19575C5.716 1.44475 5.368 1.73275 5.05 2.04975C4.732 2.36675 4.445 2.71575 4.197 3.08475C3.945 3.45775 3.727 3.85775 3.551 4.27475C3.371 4.69875 3.234 5.14175 3.143 5.58975C3.115 5.72475 3.1 5.86275 3.08 5.99975H0L4 9.99975L8 5.99975ZM12 7.99975H14.899C14.898 8.00275 14.899 8.00575 14.898 8.00775C14.832 8.33175 14.734 8.64675 14.606 8.94575C14.483 9.23875 14.328 9.52475 14.147 9.79375C13.968 10.0577 13.762 10.3078 13.534 10.5358C13.309 10.7608 13.061 10.9657 12.795 11.1458C12.527 11.3258 12.242 11.4808 11.946 11.6068C11.643 11.7348 11.328 11.8328 11.008 11.8978C10.351 12.0328 9.651 12.0328 8.991 11.8978C8.672 11.8328 8.357 11.7348 8.054 11.6068C7.757 11.4808 7.471 11.3258 7.204 11.1458C6.94 10.9677 6.691 10.7618 6.464 10.5358L5.05 11.9498C5.367 12.2668 5.716 12.5548 6.085 12.8038C6.458 13.0558 6.858 13.2738 7.275 13.4498C7.699 13.6298 8.142 13.7668 8.59 13.8577C9.051 13.9517 9.525 13.9998 10 13.9998C10.475 13.9998 10.949 13.9517 11.408 13.8577C11.857 13.7668 12.301 13.6287 12.725 13.4487C13.14 13.2727 13.54 13.0558 13.913 12.8038C14.285 12.5528 14.635 12.2638 14.948 11.9498C15.265 11.6328 15.553 11.2838 15.803 10.9128C16.057 10.5358 16.275 10.1357 16.448 9.72575C16.626 9.30575 16.763 8.86275 16.856 8.40975C16.883 8.27475 16.899 8.13675 16.919 7.99975H20L16 3.99975L12 7.99975Z" fill="#222222"/>
</svg>
