<svg width="24" height="24" fill="none" xmlns="http://www.w3.org/2000/svg"><path d="M12 22a2 2 0 100-4 2 2 0 000 4z" fill="#000" fill-opacity=".65"/><path d="M12 6a2 2 0 100-4 2 2 0 000 4z" fill="#222"/><path d="M6.343 19.657a2 2 0 100-4 2 2 0 000 4z" fill="#000" fill-opacity=".8"/><path d="M17.657 8.343a2 2 0 100-4 2 2 0 000 4z" fill="#000" fill-opacity=".2"/><path d="M4 14.001a2.001 2.001 0 100-4.002 2.001 2.001 0 000 4.002z" fill="#222"/><path d="M20 14a2 2 0 100-4 2 2 0 000 4z" fill="#000" fill-opacity=".35"/><path d="M6.343 8.344a2 2 0 100-4 2 2 0 000 4z" fill="#222"/><path d="M17.657 19.658a2 2 0 100-4 2 2 0 000 4z" fill="#000" fill-opacity=".5"/></svg>