<?xml version="1.0" encoding="utf-8"?><svg xmlns="http://www.w3.org/2000/svg" xmlns:xlink="http://www.w3.org/1999/xlink"><symbol viewBox="0 0 39 22" id="arrow" xmlns="http://www.w3.org/2000/svg"><path d="M0 10.083h35.174l-8.27-8.631L28.478 0 39 11 28.478 22l-1.434-1.435 8.13-8.648H0v-1.834Z"/></symbol><symbol viewBox="0 0 14 14" id="arrow-small" xmlns="http://www.w3.org/2000/svg"><path d="M2 5.293.586 6.707l6.707 6.707L14 6.707l-1.414-1.414-4.293 4.293V0h-2v9.586L2 5.293Z"/></symbol><symbol viewBox="0 0 18 20" id="bell" xmlns="http://www.w3.org/2000/svg"><path d="M16 11.586V8c0-3.217-2.185-5.927-5.145-6.742A1.99 1.99 0 0 0 9 0a1.99 1.99 0 0 0-1.855 1.258C4.185 2.074 2 4.783 2 8v3.586L.293 13.293A.996.996 0 0 0 0 14v2a1 1 0 0 0 1 1h16a1 1 0 0 0 1-1v-2a.996.996 0 0 0-.293-.707L16 11.586ZM16 15H2v-.586l1.707-1.707A.996.996 0 0 0 4 12V8c0-2.757 2.243-5 5-5s5 2.243 5 5v4c0 .266.105.52.293.707L16 14.414V15Zm-7 5a2.98 2.98 0 0 0 2.818-2H6.182A2.98 2.98 0 0 0 9 20Z"/></symbol><symbol viewBox="0 0 24 24" id="cart" xmlns="http://www.w3.org/2000/svg"><path d="M17.857 4.8V2.4H8.333v2.4h9.524ZM7.143 19.2c-.632 0-1.237.253-1.684.703a2.41 2.41 0 0 0 0 3.394 2.372 2.372 0 0 0 3.367 0 2.41 2.41 0 0 0 0-3.394 2.372 2.372 0 0 0-1.683-.703Zm11.905 0c-.632 0-1.237.253-1.684.703a2.41 2.41 0 0 0 0 3.394 2.372 2.372 0 0 0 3.367 0 2.41 2.41 0 0 0 0-3.394 2.372 2.372 0 0 0-1.683-.703ZM7.345 15.3l.036-.144L8.452 13.2h8.87c.892 0 1.678-.492 2.083-1.236L24 3.552 21.929 2.4h-.012l-1.31 2.4-3.286 6H8.964l-.154-.324L6.143 4.8 5.012 2.4 3.892 0H0v2.4h2.381l4.286 9.108-1.607 2.94a2.34 2.34 0 0 0-.298 1.152c0 .636.25 1.247.697 1.697.447.45 1.052.703 1.684.703h14.286v-2.4H7.643a.304.304 0 0 1-.298-.3Z"/></symbol><symbol viewBox="0 0 14 14" id="close" xmlns="http://www.w3.org/2000/svg"><path d="M13 1 1 13M1 1l12 12"/></symbol><symbol viewBox="0 0 20 20" id="info" xmlns="http://www.w3.org/2000/svg"><path d="M10 0C4.486 0 0 4.486 0 10s4.486 10 10 10 10-4.486 10-10S15.514 0 10 0Zm0 18c-4.411 0-8-3.589-8-8s3.589-8 8-8 8 3.589 8 8-3.589 8-8 8Z"/><path d="M9 9h2v6H9V9Zm0-4h2v2H9V5Z"/></symbol><symbol viewBox="0 0 17 16" id="inst" xmlns="http://www.w3.org/2000/svg"><path d="M5.75 8c0-1.38 1.176-2.5 2.625-2.5 1.45 0 2.626 1.12 2.626 2.5s-1.176 2.5-2.626 2.5S5.751 9.38 5.751 8ZM4.332 8c0 2.127 1.81 3.851 4.044 3.851 2.234 0 4.044-1.724 4.044-3.851s-1.81-3.851-4.044-3.851C6.142 4.149 4.331 5.873 4.331 8Zm7.303-4.004a.87.87 0 0 0 .16.5.936.936 0 0 0 .423.332.989.989 0 0 0 .546.051.961.961 0 0 0 .484-.246.887.887 0 0 0 .26-.46.86.86 0 0 0-.054-.52.91.91 0 0 0-.348-.405.979.979 0 0 0-.525-.152.97.97 0 0 0-.669.264.88.88 0 0 0-.277.636Zm-6.44 10.109c-.768-.034-1.185-.155-1.463-.258a2.463 2.463 0 0 1-.906-.561 2.306 2.306 0 0 1-.589-.862c-.108-.264-.236-.662-.27-1.393-.039-.79-.046-1.028-.046-3.03 0-2.004.008-2.24.045-3.032.035-.731.164-1.128.271-1.393.143-.35.314-.6.59-.862.275-.263.537-.426.905-.561.277-.103.695-.225 1.463-.258.83-.037 1.08-.044 3.181-.044 2.102 0 2.352.008 3.183.044.768.033 1.184.156 1.462.258.368.135.63.298.906.56.276.263.446.513.59.863.107.264.235.662.27 1.393.038.791.046 1.028.046 3.031s-.008 2.24-.046 3.031c-.035.731-.163 1.129-.27 1.393-.144.35-.314.6-.59.862a2.462 2.462 0 0 1-.906.56c-.277.104-.694.226-1.462.259-.83.036-1.08.043-3.183.043-2.103 0-2.351-.007-3.181-.043ZM5.128.545c-.838.037-1.41.163-1.911.349a3.888 3.888 0 0 0-1.395.865 3.652 3.652 0 0 0-.909 1.328C.72 3.564.586 4.11.548 4.907.508 5.708.5 5.964.5 8s.009 2.292.048 3.092c.038.799.17 1.344.365 1.82.202.494.47.913.909 1.33a3.9 3.9 0 0 0 1.395.864c.501.186 1.073.312 1.911.349.84.036 1.109.045 3.247.045 2.139 0 2.408-.008 3.247-.045s1.411-.163 1.912-.349a3.898 3.898 0 0 0 1.395-.865 3.66 3.66 0 0 0 .908-1.328c.195-.477.328-1.023.366-1.82.038-.801.047-1.056.047-3.093s-.009-2.292-.047-3.092c-.038-.799-.171-1.344-.366-1.82a3.675 3.675 0 0 0-.908-1.33 3.878 3.878 0 0 0-1.395-.864c-.5-.186-1.074-.313-1.911-.349C10.783.51 10.515.5 8.376.5S5.969.508 5.128.545Z"/></symbol><symbol viewBox="0 0 20 20" id="instrument" xmlns="http://www.w3.org/2000/svg"><path d="M2.707 19c.378.378.88.586 1.414.586.534 0 1.036-.208 1.414-.586l4.336-4.336a7.495 7.495 0 0 0 2.217.333 7.446 7.446 0 0 0 5.302-2.195 7.484 7.484 0 0 0 1.632-8.158l-.57-1.388-4.244 4.243-2.121-2.122 4.243-4.243-1.389-.571A7.478 7.478 0 0 0 12.084 0c-2.003 0-3.886.78-5.301 2.196a7.479 7.479 0 0 0-1.862 7.518L.585 14.05a2.001 2.001 0 0 0 0 2.828L2.707 19Zm4.548-8.791-.254-.616A5.486 5.486 0 0 1 8.197 3.61a5.46 5.46 0 0 1 4.413-1.585L9.257 5.378l4.949 4.95 3.355-3.355a5.49 5.49 0 0 1-1.587 4.416c-1.55 1.55-3.964 2.027-5.984 1.196l-.615-.255-5.254 5.256h.001l-.001 1v-1l-2.122-2.122 5.256-5.255Z"/></symbol><symbol viewBox="0 0 16 20" id="location" xmlns="http://www.w3.org/2000/svg"><path d="M8 12c2.206 0 4-1.794 4-4s-1.794-4-4-4-4 1.794-4 4 1.794 4 4 4Zm0-6c1.103 0 2 .897 2 2s-.897 2-2 2-2-.897-2-2 .897-2 2-2Z"/><path d="M7.42 19.814a.998.998 0 0 0 1.16 0C8.884 19.599 16.03 14.44 16 8c0-4.411-3.589-8-8-8-4.41 0-8 3.589-8 7.995-.029 6.445 7.116 11.604 7.42 11.819ZM8 2c3.31 0 6 2.691 6 6.005.021 4.438-4.388 8.423-6 9.73C6.39 16.427 1.98 12.441 2 8c0-3.309 2.691-6 6-6Z"/></symbol><symbol viewBox="0 0 20 20" id="message" xmlns="http://www.w3.org/2000/svg"><path d="M18 0H2C.897 0 0 .897 0 2v10c0 1.103.897 2 2 2h3v5.081L11.351 14H18c1.103 0 2-.897 2-2V2c0-1.103-.897-2-2-2Zm0 12h-7.351L7 14.919V12H2V2h16v10Z"/><path d="M7.5 9a1.5 1.5 0 1 0 0-3 1.5 1.5 0 0 0 0 3Zm5 0a1.5 1.5 0 1 0 0-3 1.5 1.5 0 0 0 0 3Z"/></symbol><symbol viewBox="0 0 19 20" id="options" xmlns="http://www.w3.org/2000/svg"><path d="M9.423 14c2.206 0 4-1.794 4-4s-1.794-4-4-4-4 1.794-4 4 1.794 4 4 4Zm0-6c1.084 0 2 .916 2 2s-.916 2-2 2-2-.916-2-2 .916-2 2-2Z"/><path d="m.268 14.136 1 1.73c.531.917 1.81 1.261 2.73.73l.53-.306a8.1 8.1 0 0 0 1.895 1.112V18c0 1.103.897 2 2 2h2c1.103 0 2-.897 2-2v-.598a8.132 8.132 0 0 0 1.896-1.111l.53.306c.922.53 2.197.188 2.73-.731l1-1.729a2.001 2.001 0 0 0-.732-2.732l-.505-.292a7.718 7.718 0 0 0 0-2.224l.505-.292a2.002 2.002 0 0 0 .731-2.732l-.999-1.729c-.53-.92-1.808-1.265-2.73-.732l-.53.306a8.1 8.1 0 0 0-1.896-1.112V2c0-1.103-.897-2-2-2h-2c-1.103 0-2 .897-2 2v.598a8.132 8.132 0 0 0-1.896 1.111l-.529-.306c-.924-.531-2.2-.187-2.73.732l-1 1.729A2.001 2.001 0 0 0 1 8.596l.505.292a7.683 7.683 0 0 0 0 2.223L1 11.403a2.003 2.003 0 0 0-.73 2.733Zm3.326-2.758A5.703 5.703 0 0 1 3.424 10c0-.462.057-.926.17-1.378a.999.999 0 0 0-.47-1.108L2 6.864l.998-1.729 1.145.662a.997.997 0 0 0 1.188-.142 6.071 6.071 0 0 1 2.384-1.399 1 1 0 0 0 .708-.956V2h2v1.3a1 1 0 0 0 .708.956 6.083 6.083 0 0 1 2.384 1.399.999.999 0 0 0 1.188.142l1.144-.661 1 1.729-1.124.649a1 1 0 0 0-.47 1.108c.112.452.17.916.17 1.378 0 .461-.058.925-.17 1.378a1 1 0 0 0 .47 1.108l1.123.649-.998 1.729-1.145-.661a.996.996 0 0 0-1.188.142 6.071 6.071 0 0 1-2.384 1.399 1 1 0 0 0-.708.956l.002 1.3H8.423v-1.3a1 1 0 0 0-.708-.956 6.083 6.083 0 0 1-2.384-1.399.992.992 0 0 0-1.188-.141L3 14.866l-1-1.729 1.124-.651a1 1 0 0 0 .471-1.108Z"/></symbol><symbol viewBox="0 0 16 12" id="photo" xmlns="http://www.w3.org/2000/svg"><path d="M13.6 2.16h-1.536L11.216.88c-.32-.48-.88-.768-1.456-.768H6.24C5.664.112 5.104.4 4.784.88l-.848 1.28H2.4c-.976 0-1.76.784-1.76 1.76v6.208c0 .976.784 1.76 1.76 1.76h11.2c.976 0 1.76-.784 1.76-1.76V3.92c0-.976-.784-1.76-1.76-1.76ZM8 10.448A3.967 3.967 0 0 1 4.032 6.48 3.954 3.954 0 0 1 8 2.528a3.967 3.967 0 0 1 3.968 3.968c0 2.176-1.776 3.952-3.968 3.952Zm5.376-5.808h-.704a.52.52 0 0 1 0-1.04h.64a.52.52 0 0 1 .544.496.507.507 0 0 1-.48.544Z"/><path d="M8 4.288a2.212 2.212 0 0 0-2.208 2.208c0 1.216.992 2.192 2.208 2.192a2.212 2.212 0 0 0 2.208-2.208A2.199 2.199 0 0 0 8 4.288Z"/></symbol><symbol viewBox="0 0 12 12" id="question" xmlns="http://www.w3.org/2000/svg"><path d="M4.545 4.5A1.5 1.5 0 0 1 7.46 5c0 1-1.5 1.5-1.5 1.5m.04 2h.005M11 6A5 5 0 1 1 1 6a5 5 0 0 1 10 0Z"/></symbol><symbol viewBox="0 0 9 11" id="requirement" xmlns="http://www.w3.org/2000/svg"><path d="M3.78 10.09h1.56l-.3-3.75 3.09 2.19.81-1.41-3.48-1.59 3.48-1.62-.81-1.38-3.09 2.16.3-3.75H3.78l.3 3.75L.99 2.53.18 3.91l3.48 1.62L.18 7.12l.81 1.41 3.09-2.19-.3 3.75Z"/></symbol><symbol viewBox="0 0 18 18" id="search" xmlns="http://www.w3.org/2000/svg"><path d="M7.698 15.395a7.648 7.648 0 0 0 4.712-1.625L16.64 18 18 16.64l-4.23-4.23a7.65 7.65 0 0 0 1.625-4.713C15.395 3.453 11.942 0 7.698 0 3.453 0 0 3.453 0 7.697s3.453 7.698 7.698 7.698Zm0-13.47a5.779 5.779 0 0 1 5.773 5.772 5.779 5.779 0 0 1-5.773 5.773 5.779 5.779 0 0 1-5.774-5.773 5.779 5.779 0 0 1 5.774-5.773Z"/></symbol><symbol viewBox="0 0 20 18" id="settings" xmlns="http://www.w3.org/2000/svg"><path d="M11 2h9v2h-9V2ZM0 4h7v2h2V0H7v2H0v2Zm7 10h13v2H7v-2Zm10-6h3v2h-3V8Zm-2 4V6.012h-2V8H0v2h13v2h2ZM5 18v-6H3v2H0v2h3v2h2Z"/></symbol><symbol viewBox="0 0 19 20" id="sign-in" xmlns="http://www.w3.org/2000/svg"><path d="M9.012.936c-2.757 0-5 2.243-5 5s2.243 5 5 5c2.758 0 5-2.243 5-5s-2.242-5-5-5Zm0 8c-1.654 0-3-1.346-3-3s1.346-3 3-3 3 1.346 3 3-1.346 3-3 3Zm9 11v-1c0-3.86-3.14-7-7-7h-4c-3.86 0-7 3.14-7 7v1h2v-1c0-2.757 2.243-5 5-5h4c2.758 0 5 2.243 5 5v1h2Z"/></symbol><symbol viewBox="0 0 12 8" id="sort-down" xmlns="http://www.w3.org/2000/svg"><path d="m2.4 8 2.4-2H3V0H1.8v6H0l2.4 2Zm3-6h5.4v1H5.4V2Zm0 2h4.2v1H5.4V4Zm0-4H12v1H5.4V0Zm0 6h3v1h-3V6Z"/></symbol><symbol viewBox="0 0 24 24" id="sort-list" xmlns="http://www.w3.org/2000/svg"><path d="M10 3H4a1 1 0 0 0-1 1v6a1 1 0 0 0 1 1h6a1 1 0 0 0 1-1V4a1 1 0 0 0-1-1ZM9 9H5V5h4v4Zm5 2h6a1 1 0 0 0 1-1V4a1 1 0 0 0-1-1h-6a1 1 0 0 0-1 1v6a1 1 0 0 0 1 1Zm1-6h4v4h-4V5ZM3 20a1 1 0 0 0 1 1h6a1 1 0 0 0 1-1v-6a1 1 0 0 0-1-1H4a1 1 0 0 0-1 1v6Zm2-5h4v4H5v-4Zm8 5a1 1 0 0 0 1 1h6a1 1 0 0 0 1-1v-6a1 1 0 0 0-1-1h-6a1 1 0 0 0-1 1v6Zm2-5h4v4h-4v-4Z"/></symbol><symbol viewBox="0 0 18 18" id="sort-table" xmlns="http://www.w3.org/2000/svg"><path d="M18 2c0-1.103-.897-2-2-2H2C.897 0 0 .897 0 2v14c0 1.103.897 2 2 2h14c1.103 0 2-.897 2-2V2ZM2 16V2h14l.002 14H2Z"/><path d="M4 4h1.998v2H4V4Zm4 0h6v2H8V4ZM4 8h1.998v2H4V8Zm4 0h6v2H8V8Zm-4 4h1.998v2H4v-2Zm4 0h6v2H8v-2Z"/></symbol><symbol viewBox="0 0 20 19" id="success" xmlns="http://www.w3.org/2000/svg"><path d="M18 6h-5.612l1.123-3.367c.202-.608.1-1.282-.275-1.802A2.009 2.009 0 0 0 11.612 0H10c-.297 0-.578.132-.769.36L4.531 6H2C.897 6 0 6.897 0 8v9c0 1.103.897 2 2 2h13.307a2.01 2.01 0 0 0 1.873-1.298l2.757-7.351A1 1 0 0 0 20 10V8c0-1.103-.897-2-2-2ZM2 8h2v9H2V8Zm16 1.819L15.307 17H6V7.362L10.468 2h1.146l-1.562 4.683A.998.998 0 0 0 11 8h7v1.819Z"/></symbol><symbol viewBox="0 0 18 20" id="trash" xmlns="http://www.w3.org/2000/svg"><path d="M2 18c0 1.103.897 2 2 2h10c1.103 0 2-.897 2-2V6h2V4h-4V2c0-1.103-.897-2-2-2H6C4.897 0 4 .897 4 2v2H0v2h2v12ZM6 2h6v2H6V2Zm8 4 .001 12H4V6h10Z"/><path d="M6 8h2v8H6V8Zm4 0h2v8h-2V8Z"/></symbol><symbol viewBox="0 0 18 11" id="vk" xmlns="http://www.w3.org/2000/svg"><path fill-rule="evenodd" clip-rule="evenodd" d="M16.871 1.16c.115-.38 0-.66-.545-.66H14.52c-.459 0-.67.242-.785.508 0 0-.918 2.226-2.218 3.672-.421.419-.612.552-.842.552-.115 0-.28-.133-.28-.514V1.16c0-.457-.134-.66-.516-.66H7.042c-.287 0-.46.212-.46.413 0 .433.65.533.718 1.75v2.645c0 .58-.105.685-.335.685-.612 0-2.1-2.236-2.983-4.795C3.809.701 3.635.5 3.174.5H1.369C.853.5.75.742.75 1.008c0 .476.612 2.835 2.85 5.956 1.491 2.13 3.593 3.286 5.505 3.286 1.148 0 1.29-.257 1.29-.699v-1.61c0-.513.108-.616.471-.616.268 0 .727.133 1.798 1.16 1.224 1.218 1.426 1.765 2.114 1.765h1.805c.516 0 .774-.257.625-.763-.162-.505-.747-1.237-1.522-2.105-.421-.494-1.052-1.027-1.243-1.294-.268-.342-.192-.494 0-.799 0 0 2.199-3.082 2.428-4.129Z"/></symbol><symbol viewBox="0 0 30 31" id="wp" xmlns="http://www.w3.org/2000/svg"><path d="M30 15.13c0 7.92-6.593 14.338-14.727 14.338-2.583 0-5.009-.647-7.12-1.784L0 30.226l2.658-7.692A13.987 13.987 0 0 1 .545 15.13C.545 7.212 7.139.792 15.273.792 23.408.792 30 7.212 30 15.13ZM15.273 3.076C8.445 3.076 2.89 8.484 2.89 15.13c0 2.638.876 5.081 2.358 7.068l-1.547 4.477 4.759-1.484a12.545 12.545 0 0 0 6.812 1.994c6.827 0 12.382-5.407 12.382-12.054S22.1 3.076 15.273 3.076Zm7.437 15.357c-.091-.147-.332-.235-.692-.41-.362-.176-2.137-1.027-2.467-1.143-.331-.118-.572-.177-.813.175-.24.352-.932 1.143-1.143 1.378-.21.235-.421.264-.782.088-.361-.175-1.524-.547-2.903-1.744-1.073-.931-1.798-2.082-2.008-2.434-.21-.351-.022-.541.158-.716.163-.158.361-.41.542-.616.18-.205.24-.351.36-.586.121-.234.061-.44-.03-.616-.09-.175-.812-1.905-1.113-2.608-.3-.704-.601-.587-.812-.587-.21 0-.451-.029-.692-.029-.24 0-.632.088-.963.44-.33.351-1.263 1.202-1.263 2.93 0 1.73 1.293 3.401 1.474 3.636.18.234 2.497 3.898 6.167 5.305 3.67 1.406 3.67.937 4.332.878.661-.058 2.135-.85 2.437-1.67.3-.821.3-1.525.21-1.671Z"/></symbol><symbol viewBox="0 0 14 10" id="yes" xmlns="http://www.w3.org/2000/svg"><path d="M12.333 1 5 8.333 1.667 5"/></symbol><symbol viewBox="0 0 11 8" id="yes-fit" xmlns="http://www.w3.org/2000/svg"><path d="M3.592 5.966 1.08 3.596 0 4.615 3.592 8 11 1.017 9.92 0 3.593 5.966Z"/></symbol></svg>